<?xml version="1.0" encoding="utf-8" standalone="no"?>
<!DOCTYPE svg PUBLIC "-//W3C//DTD SVG 1.1//EN" "http://www.w3.org/Graphics/SVG/1.1/DTD/svg11.dtd">
<svg xmlns="http://www.w3.org/2000/svg" xmlns:xl="http://www.w3.org/1999/xlink" version="1.1" viewBox="20 14 481 456" width="481pt" height="38pc" xmlns:dc="http://purl.org/dc/elements/1.1/"><metadata> Produced by OmniGraffle 6.1.1 <dc:date>2014-12-27 06:28:22 +0000</dc:date></metadata><defs/><g stroke="none" stroke-opacity="1" stroke-dasharray="none" fill="none" fill-opacity="1"><title>iTunesArtwork</title><rect fill="white" width="512" height="512"/><g><title>Layer 1</title><path d="M 70.89615 104.89615 L 247.82843 281.82843 C 248.57857 282.57857 249 283.59599 249 284.65685 L 249 284.65685 L 249 284.65685 L 249 455 C 249 457.20914 250.79086 459 253 459 L 269 459 C 271.20914 459 273 457.20914 273 455 L 273 284.65685 C 273 283.59599 273.42143 282.57857 274.17157 281.82843 L 450.3011 105.6989 C 336.63405 117.028474 182.6592 116.760886 70.89616 104.896146 Z" fill="#c1d6ff"/><path d="M 70.89615 104.89615 L 247.82843 281.82843 C 248.57857 282.57857 249 283.59599 249 284.65685 L 249 284.65685 L 249 284.65685 L 249 455 C 249 457.20914 250.79086 459 253 459 L 269 459 C 271.20914 459 273 457.20914 273 455 L 273 284.65685 C 273 283.59599 273.42143 282.57857 274.17157 281.82843 L 450.3011 105.6989 C 336.63405 117.028474 182.6592 116.760886 70.89616 104.896146 Z" stroke="black" stroke-linecap="round" stroke-linejoin="round" stroke-width="1"/><path d="M 448.42501 105.91813 L 488.51472 65.828427 C 490.07682 64.26633 490.07682 61.73367 488.51472 60.171573 C 487.76457 59.421428 486.74716 59 485.6863 59 L 35 59 C 32.790861 59 31 60.79086 31 63 C 31 64.060866 31.421427 65.07828 32.171573 65.828427 L 71.239277 104.89613 C 182.27662 116.68385 334.9794 117.02451 448.425 105.918125 Z" fill="white"/><path d="M 448.42501 105.91813 L 488.51472 65.828427 C 490.07682 64.26633 490.07682 61.73367 488.51472 60.171573 C 487.76457 59.421428 486.74716 59 485.6863 59 L 35 59 C 32.790861 59 31 60.79086 31 63 C 31 64.060866 31.421427 65.07828 32.171573 65.828427 L 71.239277 104.89613 C 182.27662 116.68385 334.9794 117.02451 448.425 105.918125 Z" stroke="black" stroke-linecap="round" stroke-linejoin="round" stroke-width="1"/><path d="M 419 84.170886 L 444.0812 37 L 455.35008 42.991768 L 430.26888 90.162654 Z" fill="#ffe442"/><path d="M 357.25375 69.008085 L 378.0812 29.837346 L 389.35008 35.829114 L 368.52263 74.999854 Z" fill="#ffe442"/><path d="M 330.20377 35 L 371.12918 69.3405 L 362.92541 79.117365 L 322 44.776866 Z" fill="#dbc137"/><path d="M 386.19282 24 L 433.65532 86.98486 L 423.4625 94.6657 L 376 31.68084 Z" fill="#dbc137"/></g></g></svg>
